<svg xmlns="http://www.w3.org/2000/svg" viewBox="0 0 197.78 197.06"><defs><style>.cls-1{fill:none;stroke:#000;stroke-miterlimit:10;stroke-width:14px;}.cls-2{fill:#f9a900;}</style></defs><title>Asset 1</title><g id="Layer_2" data-name="Layer 2"><g id="Layer_1-2" data-name="Layer 1"><polygon class="cls-1" points="123.96 190 7 188.96 7 72 123.96 72 123.96 190"/><path class="cls-2" d="M197.78,4.46C176.08,29,164,42.34,145,68.6a933.2,933.2,0,0,0-52.35,80.8q-1.77,3.06-4.4,8.54Q80.1,174.5,65,174.5a25.25,25.25,0,0,1-10.56-1.91A20.55,20.55,0,0,1,46.79,166a48.2,48.2,0,0,1-5.4-10.65q-2.52-6.56-5.91-19.3c-.17-.51-2.41-7.74-2.57-8.51Q29,113.37,29,109.8q0-7.26,8.36-13.32t16.53-6A5.86,5.86,0,0,1,58.17,92c1.09,1.06,2.35,3.34,3.78,6.82q1.24,3.18,3.14,8.67c2.85,8.15,7.3,18.82,9.23,18.82q2.52,0,19.87-27.91,16.59-26.64,28.53-44.74c11.15-16.9,11.35-17,17.18-24.56S151,15.89,155.67,12a45.16,45.16,0,0,1,15.84-8Q181.19,1,196,0Z"/></g></g></svg>